<?xml version="1.0" encoding="UTF-8" standalone="no"?>
<!-- Created with Inkscape (http://www.inkscape.org/) -->

<svg
   xmlns:dc="http://purl.org/dc/elements/1.1/"
   xmlns:cc="http://creativecommons.org/ns#"
   xmlns:rdf="http://www.w3.org/1999/02/22-rdf-syntax-ns#"
   xmlns:svg="http://www.w3.org/2000/svg"
   xmlns="http://www.w3.org/2000/svg"
   version="1.1"
   width="37"
   height="32"
   id="svg2"
   xml:space="preserve"><metadata
     id="metadata8"><rdf:RDF><cc:Work
         rdf:about=""><dc:format>image/svg+xml</dc:format><dc:type
           rdf:resource="http://purl.org/dc/dcmitype/StillImage" /><dc:title></dc:title></cc:Work></rdf:RDF></metadata><defs
     id="defs6"><clipPath
       id="clipPath20"><path
         d="M 0,0 117,0 117,132 0,132 0,0 z"
         id="path22" /></clipPath></defs><g
     transform="matrix(1.25,0,0,-1.25,0,32)"
     id="g10"><g
       transform="matrix(0.19642151,0,0,0.19642151,6.2525147,-0.15646615)"
       id="g12"><g
         id="g14"><g
           id="g16"><g
             clip-path="url(#clipPath20)"
             id="g18"><g
               id="g24"><path
                 d="m 57.477,0.773 c -33.52,0 -56.743,25.84 -56.743,64.043 0,40.079 24.715,66.289 58.43,66.289 34.641,0 56.926,-26.398 56.926,-63.847 C 116.09,24 89.68,0.773 57.66,0.773 l -0.183,0 z"
                 id="path26"
                 style="fill:#231f20;fill-opacity:1;fill-rule:nonzero;stroke:none" /><path
                 d="m 39.191,92.855 c -5.769,0 -9.769,4.446 -9.769,11.02 0,6.898 4.254,11.414 10.058,11.414 5.961,0 9.797,-4.547 9.797,-10.992 0,-7.445 -4.543,-11.442 -10.054,-11.442 l -0.032,0 z"
                 id="path28"
                 style="fill:#ffffff;fill-opacity:1;fill-rule:nonzero;stroke:none" /><path
                 d="m 55.738,114.934 0,-12.895 c 0,-4.836 2.16,-6.894 5.059,-6.894 3.191,0 5.285,2.125 5.285,6.894 l 0,12.895 2.84,0 0,-12.7 c 0,-6.672 -3.516,-9.379 -8.223,-9.379 -4.445,0 -7.797,2.516 -7.797,9.282 l 0,12.797 2.836,0 z"
                 id="path30"
                 style="fill:#ffffff;fill-opacity:1;fill-rule:nonzero;stroke:none" /><path
                 d="m 77.926,112.547 -6.61,0 0,2.387 16.082,0 0,-2.387 -6.64,0 0,-19.34 -2.832,0 0,19.34 z"
                 id="path32"
                 style="fill:#ffffff;fill-opacity:1;fill-rule:nonzero;stroke:none" /><path
                 d="m 25.816,73.469 c 3.547,0 5.551,3.261 5.551,7.195 0,3.449 -1.797,7.043 -5.523,7.043 -3.731,0 -5.582,-3.469 -5.582,-7.219 0,-3.656 2.004,-7.019 5.527,-7.019 l 0.027,0 z m -0.101,-1.828 c -4.606,0 -7.793,3.547 -7.793,8.793 0,5.504 3.394,9.101 8.023,9.101 4.758,0 7.813,-3.625 7.813,-8.765 0,-5.942 -3.625,-9.129 -8.02,-9.129 l -0.023,0 z"
                 id="path34"
                 style="fill:#ffffff;fill-opacity:1;fill-rule:nonzero;stroke:none" /><path
                 d="m 36.648,89.25 9.332,0 0,-1.875 -7.066,0 0,-5.758 6.531,0 0,-1.847 -6.531,0 0,-7.844 -2.266,0 0,17.324 z"
                 id="path36"
                 style="fill:#ffffff;fill-opacity:1;fill-rule:nonzero;stroke:none" /><path
                 d="m 56.898,87.348 -5.269,0 0,1.902 12.828,0 0,-1.902 -5.297,0 0,-15.422 -2.262,0 0,15.422 z"
                 id="path38"
                 style="fill:#ffffff;fill-opacity:1;fill-rule:nonzero;stroke:none" /><path
                 d="m 68.625,89.25 0,-7.25 8.383,0 0,7.25 2.265,0 0,-17.324 -2.265,0 0,8.121 -8.383,0 0,-8.121 -2.262,0 0,17.324 2.262,0 z"
                 id="path40"
                 style="fill:#ffffff;fill-opacity:1;fill-rule:nonzero;stroke:none" /><path
                 d="m 12.734,46.406 91.355,0 0,-2.297 -91.355,0 0,2.297 z"
                 id="path42"
                 style="fill:#ffffff;fill-opacity:1;fill-rule:nonzero;stroke:none" /><path
                 d="m 82.684,89.371 9.101,0 0,-2.086 -6.879,0 0,-5.582 6.879,0 0,-2.082 -6.879,0 0,-5.769 6.879,0 0,-2.082 -9.101,0 0,17.601 z"
                 id="path44"
                 style="fill:#ffffff;fill-opacity:1;fill-rule:nonzero;stroke:none" /><path
                 d="m 40.48,52.355 c 2.79,0 3.586,1.321 3.586,2.813 0,1.297 -0.796,2.832 -3.586,2.832 l -3.156,0 0,-5.645 3.156,0 z m -0.562,7.457 c 1.684,0 3.004,0.977 3.004,2.571 0,0.847 -0.301,1.535 -0.824,2.012 -0.539,0.496 -1.383,0.757 -2.59,0.757 l -2.184,0 0,-5.34 2.594,0 z m -4.668,7.153 4.277,0 c 1.621,0 2.723,-0.254 3.696,-0.949 1.015,-0.735 1.773,-1.922 1.773,-3.586 0,-1.535 -0.82,-2.637 -2.051,-3.242 l 0,-0.047 c 2.032,-0.301 3.196,-1.965 3.196,-3.953 0,-2.68 -2.184,-4.645 -4.95,-4.645 l -5.941,0 0,16.422 z"
                 id="path46"
                 style="fill:#ffffff;fill-opacity:1;fill-rule:nonzero;stroke:none" /><path
                 d="m 57.02,52.227 c 3.351,0 6.507,2.636 6.507,6.527 0,3.891 -3.156,6.527 -6.507,6.527 -3.348,0 -6.504,-2.636 -6.504,-6.527 0,-3.891 3.156,-6.527 6.504,-6.527"
                 id="path48"
                 style="fill:#ffffff;fill-opacity:1;fill-rule:nonzero;stroke:none" /><path
                 d="m 77.762,66.965 2.531,0 -5.445,-8.059 5.683,-8.367 -2.574,0 -4.387,6.637 -4.386,-6.637 -2.571,0 5.684,8.367 -5.449,8.059 2.531,0 4.191,-6.352 4.192,6.352 z"
                 id="path50"
                 style="fill:#ffffff;fill-opacity:1;fill-rule:nonzero;stroke:none" /><path
                 d="m 31.945,21.617 c -0.187,1.297 -0.941,2.09 -2.109,2.09 -1.555,0 -1.973,-1.023 -1.973,-1.773 0,-0.821 0.516,-1.34 1.598,-1.743 l 1.387,-0.519 c 1.746,-0.652 2.55,-1.676 2.55,-3 0,-1.777 -1.41,-3.059 -3.515,-3.059 -1.992,0 -3.406,1.055 -3.578,3.246 l 1.383,0 c 0.117,-1.195 0.722,-2.035 2.265,-2.035 1.195,0 2.063,0.766 2.063,1.731 0,0.851 -0.707,1.398 -1.704,1.793 l -1.398,0.543 c -1.629,0.636 -2.437,1.589 -2.437,3 0,1.89 1.574,3.031 3.375,3.031 1.816,0 3.23,-1.082 3.39,-3.305 l -1.297,0 z"
                 id="path52"
                 style="fill:#ffffff;fill-opacity:1;fill-rule:nonzero;stroke:none" /><path
                 d="m 35.094,24.746 5.668,0 0,-1.297 -4.285,0 0,-3.472 4.285,0 0,-1.301 -4.285,0 0,-3.59 4.285,0 0,-1.301 -5.668,0 0,10.961 z"
                 id="path54"
                 style="fill:#ffffff;fill-opacity:1;fill-rule:nonzero;stroke:none" /><path
                 d="m 50.848,22.496 c -0.782,0.707 -1.778,1.125 -2.828,1.125 -2.293,0 -4.344,-1.832 -4.344,-4.351 0,-2.555 2.109,-4.36 4.344,-4.36 1.21,0 2.164,0.449 2.925,1.168 l 0.883,-0.992 c -0.98,-0.895 -2.426,-1.473 -3.808,-1.473 -3.723,0 -5.813,2.942 -5.813,5.657 0,2.707 2.09,5.652 5.813,5.652 1.457,0 2.882,-0.594 3.765,-1.399 l -0.937,-1.027 z"
                 id="path56"
                 style="fill:#ffffff;fill-opacity:1;fill-rule:nonzero;stroke:none" /><path
                 d="m 53.219,24.746 1.383,0 0,-6.574 c 0,-1.789 0.996,-3.262 2.914,-3.262 1.918,0 2.914,1.473 2.914,3.262 l 0,6.574 1.382,0 0,-6.976 c 0,-2.368 -1.789,-4.157 -4.324,-4.157 -2.484,0 -4.269,1.789 -4.269,4.157 l 0,6.976 z"
                 id="path58"
                 style="fill:#ffffff;fill-opacity:1;fill-rule:nonzero;stroke:none" /><path
                 d="m 65.34,19.309 c 0.187,-0.012 0.387,-0.012 1.211,-0.012 2.117,0 2.855,0.922 2.855,2.121 0,1.281 -0.879,2.121 -2.32,2.121 l -1.746,0 0,-4.23 z m 0,-0.848 0,-4.672 -1.387,0 0,10.961 3.16,0 c 2.106,0 3.676,-1.211 3.676,-3.316 0,-1.965 -1.543,-3.176 -3.332,-3.278 l 4.27,-4.367 -1.946,0 -4.441,4.672 z"
                 id="path60"
                 style="fill:#ffffff;fill-opacity:1;fill-rule:nonzero;stroke:none" /><path
                 d="m 72.988,24.746 1.383,0 0,-10.961 -1.383,0 0,10.961 z"
                 id="path62"
                 style="fill:#ffffff;fill-opacity:1;fill-rule:nonzero;stroke:none" /><path
                 d="m 78.457,23.449 -2.742,0 0,1.297 6.867,0 0,-1.297 -2.742,0 0,-9.664 -1.383,0 0,9.664 z"
                 id="path64"
                 style="fill:#ffffff;fill-opacity:1;fill-rule:nonzero;stroke:none" /><path
                 d="m 90.438,24.969 1.613,0 -3.707,-6.59 0,-4.371 -1.383,0 0,4.371 -3.707,6.59 1.613,0 2.785,-5.133 2.786,5.133 z"
                 id="path66"
                 style="fill:#ffffff;fill-opacity:1;fill-rule:nonzero;stroke:none" /><path
                 d="m 44.691,30.527 c 2.45,0 4.153,1.875 4.153,4.297 0,2.34 -1.875,4.071 -4.27,4.071 l -1.746,0 0,-8.368 1.863,0 z m -3.246,9.664 3.606,0 c 2.683,0 5.265,-2.293 5.265,-5.437 0,-3.129 -2.496,-5.524 -5.613,-5.524 l -3.258,0 0,10.961 z"
                 id="path68"
                 style="fill:#ffffff;fill-opacity:1;fill-rule:nonzero;stroke:none" /><path
                 d="m 56.121,38.375 -2.074,-5.383 4.152,0 -2.078,5.383 z m 2.555,-6.594 -5.11,0 -0.992,-2.551 -1.515,0 4.457,10.961 1.211,0 4.457,-10.961 -1.516,0 -0.992,2.551 z"
                 id="path70"
                 style="fill:#ffffff;fill-opacity:1;fill-rule:nonzero;stroke:none" /><path
                 d="m 63.184,38.895 -2.743,0 0,1.296 6.868,0 0,-1.296 -2.743,0 0,-9.665 -1.382,0 0,9.665 z"
                 id="path72"
                 style="fill:#ffffff;fill-opacity:1;fill-rule:nonzero;stroke:none" /><path
                 d="m 71.625,38.375 -2.074,-5.383 4.152,0 -2.078,5.383 z m 2.555,-6.594 -5.106,0 -0.996,-2.551 -1.516,0 4.458,10.961 1.21,0 4.458,-10.961 -1.516,0 -0.992,2.551 z"
                 id="path74"
                 style="fill:#ffffff;fill-opacity:1;fill-rule:nonzero;stroke:none" /></g></g></g></g></g></g></svg>